Coordinates
version=1
nRows=9
nColumns=40
inDegrees=yes

Units are S.I. units (second, meters, Newtons, ...)
If the header above contains a line with 'inDegrees', this indicates whether rotational values are in degrees (yes) or radians (no).

endheader
time	pelvis_tilt	pelvis_list	pelvis_rotation	pelvis_tx	pelvis_ty	pelvis_tz	hip_flexion_r	hip_adduction_r	hip_rotation_r	knee_angle_r	knee_angle_r_beta	ankle_angle_r	subtalar_angle_r	mtp_angle_r	hip_flexion_l	hip_adduction_l	hip_rotation_l	knee_angle_l	knee_angle_l_beta	ankle_angle_l	subtalar_angle_l	mtp_angle_l	lumbar_extension	lumbar_bending	lumbar_rotation	arm_flex_r	arm_add_r	arm_rot_r	elbow_flex_r	pro_sup_r	wrist_flex_r	wrist_dev_r	arm_flex_l	arm_add_l	arm_rot_l	elbow_flex_l	pro_sup_l	wrist_flex_l	wrist_dev_l
      8.31000000000000049738	     -9.53732050877778370079	      0.23152917337531625508	   -176.29982449886628614877	      0.22787010870562526832	      0.67457183246906249341	     -0.89422370397658135222	     42.71654125788018063758	    -49.39261105062328738313	     -9.13131938015349398086	     68.89541261105311775736	      1.20245178958290033222	      9.19269686810755715101	      0.00000000000000000000	      0.00000000000000000000	     49.20706088229470509532	    -49.50145900737918225332	     -6.73952273455589878637	     74.14991529610182396937	      1.29416016199188299574	      8.86134993949727878260	      0.00000000000000000000	      0.00000000000000000000	    -64.72503863290580738976	      4.32214755192618937940	     -4.06099947937696903466	     43.64165493968418019222	      1.81038024916908946160	     28.58627136979573180042	      3.63270753647072908166	     16.32699326681278861884	      0.00000000000000000000	      0.00000000000000000000	     48.36913020165342658174	     -5.54507334407541652155	     69.39678640363615613751	      5.77965541864953635809	     79.25458934049552794932	      0.00000000000000000000	      0.00000000000000000000
      8.31499999999999950262	     -9.44023010330685785618	      0.30902371209257584184	   -176.25175634486515718891	      0.22813204488788813018	      0.67533369622912553520	     -0.89395501577676017568	     42.56457640304843437207	    -49.36455447923454187276	     -9.45794671930595143294	     68.69119319487587915773	      1.19888748837410696879	      9.03117598190742754127	      0.00000000000000000000	      0.00000000000000000000	     49.33557502879101974713	    -49.47326068403435073151	     -6.69855244330630039684	     74.03910761591185973884	      1.29222620313607117204	      8.72207785701102800147	      0.00000000000000000000	      0.00000000000000000000	    -64.61696604786479269933	      4.43011404089731097855	     -4.06867014476000132817	     43.54629176355970088252	      1.84438540159803743279	     29.53848957930573249087	      3.95120754865016721169	     13.30299687254455953678	      0.00000000000000000000	      0.00000000000000000000	     48.38038448132169122573	     -5.47608674648834981014	     68.55366324303111014160	      5.55851704156441961402	     81.12812055837609648279	      0.00000000000000000000	      0.00000000000000000000
      8.32000000000000028422	     -9.43514477600967005344	      0.26524464909950662417	   -176.31407187745679721047	      0.22838066679013721560	      0.67636760763516856620	     -0.89388294727587280786	     42.47040328759553062810	    -49.34019501092009107879	     -9.55177040922465536710	     68.45819797474013057581	      1.19482095464132909157	      8.86255883398369981307	      0.00000000000000000000	      0.00000000000000000000	     49.03816330013597024617	    -49.46895794215638630931	     -7.04600603684227611012	     73.84306588291151740577	      1.28880462942389950598	      8.66086501532003616433	      0.00000000000000000000	      0.00000000000000000000	    -64.61441809557088333804	      4.35063254121083531345	     -4.02600101072917571088	     43.50241135544172976779	      1.74593789764568319001	     29.02016666299458336198	      3.84726687009757162272	     15.32420838623132475220	      0.00000000000000000000	      0.00000000000000000000	     48.38148258739574458787	     -5.50598616083401282140	     69.48810283998007264472	      5.66303745131770597254	     79.77861179258802337699	      0.00000000000000000000	      0.00000000000000000000
      8.32499999999999928946	     -9.37107692419511728588	      0.31200119893374633762	   -176.28760170783840521835	      0.22862361033931993815	      0.67732981475363651658	     -0.89358215156677012203	     42.28248620914499866785	    -49.32227010256937660415	     -9.86437102169232993276	     68.22010691121960235250	      1.19066548166332109027	      8.71856950091098426014	      0.00000000000000000000	      0.00000000000000000000	     49.01499124000749674224	    -49.45038513010867120556	     -7.15018533849956838822	     73.68680443430058346621	      1.28607735265170286532	      8.51291807583954707184	      0.00000000000000000000	      0.00000000000000000000	    -64.54395166466181876785	      4.42480254316282817229	     -3.99022883634926106566	     43.47467738368476375399	      1.71479354221319679752	     28.91819573941069521084	      3.86655619380697768150	     15.65687980343407481598	      0.00000000000000000000	      0.00000000000000000000	     48.39265207022617687471	     -5.47636432326676558802	     69.86399241572740947959	      5.62774584188723103750	     79.81509359085531229994	      0.00000000000000000000	      0.00000000000000000000
      8.33000000000000007105	     -9.37856147032421461063	      0.30826646375440719394	   -176.31328673577834820207	      0.22900676062001240618	      0.67843814261815960087	     -0.89350621205949143366	     42.09460777362009764602	    -49.28337212396066746578	    -10.05813248125910241981	     67.98163260438811050790	      1.18650331982770018691	      8.51462796812284494763	      0.00000000000000000000	      0.00000000000000000000	     48.78632496475806590297	    -49.44029807419548205871	     -7.41126342384551239917	     73.46771949511231980523	      1.28225359912133618501	      8.39205155021264914694	      0.00000000000000000000	      0.00000000000000000000	    -64.54092160859168814113	      4.40146601498736966818	     -4.03735700825400645186	     43.76563322286002488681	      1.75357152278237848897	     28.22762252023100160159	      3.92641292250318674206	     15.68758703382656349845	      0.00000000000000000000	      0.00000000000000000000	     48.40688819493665562277	     -5.55008312196108022363	     69.94035964466249311045	      5.66698262228694460418	     79.91652752533767056775	      0.00000000000000000000	      0.00000000000000000000
      8.33500000000000085265	     -9.30312215644598872188	      0.34032922062392051421	   -176.29052183036966994223	      0.22917182820143452981	      0.67935288390619508192	     -0.89324429303627728149	     41.94692938777505730741	    -49.28261730108625471303	    -10.34321895647975075860	     67.75999028082057407119	      1.18263493151967602479	      8.37238523210099039318	      0.00000000000000000000	      0.00000000000000000000	     48.67109911183107584520	    -49.44174329207770313133	     -7.56341447772009356498	     73.25865905576297620883	      1.27860480611902405101	      8.15560808942227843943	      0.00000000000000000000	      0.00000000000000000000	    -64.46288273865758355896	      4.48765038353876555277	     -4.17572776181755944691	     44.24212270469293173392	      2.08156241647640261050	     27.04676954070436067923	      4.05467966231561671719	     13.16665186953163413364	      0.00000000000000000000	      0.00000000000000000000	     48.33380082407303746095	     -5.53911679314011440312	     68.15032809176395289796	      5.56737107376882622845	     80.97879134131986234024	      0.00000000000000000000	      0.00000000000000000000
      8.33999999999999985789	     -9.24106762598315611967	      0.37639046486746491338	   -176.28127690643123059999	      0.22957229603243539673	      0.68019941039089037993	     -0.89318620542298732268	     41.83333786383319363722	    -49.23720245816954133034	    -10.57537039990821092772	     67.55773394778384499659	      1.17910489257517503425	      8.23177183695939795882	      0.00000000000000000000	      0.00000000000000000000	     48.63406471340154979544	    -49.42360658303221754295	     -7.67418765999796104182	     73.06978648746397198011	      1.27530835793550867407	      8.06191578213178416945	      0.00000000000000000000	      0.00000000000000000000	    -64.37359503861992493512	      4.49793861382332860188	     -4.06201237033561390888	     43.90407441974657132278	      1.91384959460068149184	     27.99327130440963173896	      4.02555060774838313620	     13.49079611772292430771	      0.00000000000000000000	      0.00000000000000000000	     48.40569619339037643613	     -5.49981551090372988710	     68.82360473448420634668	      5.52985714156272756270	     80.83052848752818420053	      0.00000000000000000000	      0.00000000000000000000
      8.34500000000000063949	     -9.21742583945677651514	      0.38018501764919182540	   -176.30791840915657076039	      0.22984516458424894547	      0.68127047404205298697	     -0.89309791215790623742	     41.66764452526443562874	    -49.21700207996551057477	    -10.81052499606944827804	     67.31659585618918129057	      1.17489623892487249357	      8.05373915467116141542	      0.00000000000000000000	      0.00000000000000000000	     48.44057078674233451920	    -49.41395535153565532482	     -7.92427883508168662274	     72.86371097698777532514	      1.27171166176997085806	      7.98444251511962299617	      0.00000000000000000000	      0.00000000000000000000	    -64.33982357165314169833	      4.47265008766728300316	     -4.01957392859977336030	     44.13725148315029400692	      1.82283398182077926997	     27.03107077358157539493	      3.98793499781709703811	     15.36166665727516011941	      0.00000000000000000000	      0.00000000000000000000	     48.40266539250320221299	     -5.55813341850870479277	     69.77399806589490083297	      5.64233469571614953963	     79.73288969995422803549	      0.00000000000000000000	      0.00000000000000000000
      8.34999999999999964473	     -9.18481904920851910390	      0.41306701363669900973	   -176.29578143361649722465	      0.23024527191308322149	      0.68223773194025183475	     -0.89305856458070442816	     41.50390981864159556380	    -49.18333767895691011063	    -11.06568225731307286708	     67.11215215641409770342	      1.17132802322883855517	      7.86966037216271363519	      0.00000000000000000000	      0.00000000000000000000	     48.37265066992242878996	    -49.38817841892966953310	     -8.01306203452559806522	     72.67416040202725469044	      1.26840338013786158022	      7.84207604465921903625	      0.00000000000000000000	      0.00000000000000000000	    -64.29529369707695707348	      4.51758405817610420030	     -4.03403482137216684578	     43.96899386341375759457	      1.94391831403164450087	     27.71237068836783024040	      4.02982491148993027252	     13.41559448003054910714	      0.00000000000000000000	      0.00000000000000000000	     48.42504893824052203399	     -5.54060991245681044859	     68.72391745647520622242	      5.57683956769157518352	     80.94871467614304094695	      0.00000000000000000000	      0.00000000000000000000
